<svg width="24" height="24" viewBox="0 0 24 24" fill="none" xmlns="http://www.w3.org/2000/svg">
<path d="M9.96746 22.455C9.6793 22.4573 9.39358 22.4021 9.12701 22.2927C8.86043 22.1832 8.61837 22.0217 8.41496 21.8175L2.05496 15.4575C1.8398 15.242 1.67198 14.9839 1.56221 14.6998C1.45244 14.4157 1.40314 14.1118 1.41746 13.8075C1.45467 13.1902 1.72234 12.6094 2.16746 12.18L12 2.34005C12.2285 2.09923 12.5044 1.90828 12.8103 1.77921C13.1162 1.65014 13.4455 1.58574 13.7775 1.59005L19.9875 1.74755C20.5512 1.75929 21.088 1.99101 21.4832 2.39321C21.8784 2.7954 22.1006 3.33619 22.1025 3.90005L22.26 10.1025C22.2626 10.4354 22.1975 10.7653 22.0686 11.0722C21.9396 11.3791 21.7496 11.6565 21.51 11.8875L11.6925 21.75C11.2658 22.1989 10.6834 22.4673 10.065 22.5L9.96746 22.455ZM9.47996 20.76C9.5487 20.8278 9.63104 20.8803 9.72154 20.9139C9.81204 20.9475 9.90864 20.9615 10.005 20.955C10.2401 20.9384 10.4612 20.8372 10.6275 20.67L20.475 10.8225C20.5657 10.7352 20.6377 10.6303 20.6867 10.5143C20.7357 10.3983 20.7606 10.2735 20.76 10.1475L20.6025 3.93755C20.6025 3.76051 20.5321 3.59073 20.407 3.46555C20.2818 3.34037 20.112 3.27005 19.935 3.27005L13.725 3.11255C13.5992 3.11314 13.4748 3.13863 13.359 3.18755C13.2431 3.23646 13.1381 3.30783 13.05 3.39755L3.20246 13.245C3.03534 13.4113 2.93409 13.6324 2.91746 13.8675C2.91098 13.9639 2.92502 14.0605 2.95863 14.151C2.99224 14.2415 3.04468 14.3238 3.11246 14.3925L9.47996 20.76ZM17.1225 9.00005C16.5259 8.99952 15.954 8.76212 15.5325 8.34005C15.2175 8.02549 15.0029 7.62458 14.9159 7.18805C14.8289 6.75152 14.8732 6.29897 15.0435 5.88768C15.2137 5.47638 15.5021 5.12481 15.8721 4.87745C16.2422 4.6301 16.6773 4.49807 17.1225 4.49807C17.5676 4.49807 18.0027 4.6301 18.3728 4.87745C18.7429 5.12481 19.0312 5.47638 19.2015 5.88768C19.3717 6.29897 19.4161 6.75152 19.329 7.18805C19.242 7.62458 19.0274 8.02549 18.7125 8.34005C18.2909 8.76212 17.719 8.99952 17.1225 9.00005ZM17.1225 6.00005C17.0238 5.99948 16.9259 6.01839 16.8345 6.05572C16.7432 6.09304 16.66 6.14804 16.59 6.21755C16.52 6.28748 16.4646 6.37049 16.4267 6.46186C16.3889 6.55323 16.3694 6.65115 16.3694 6.75005C16.3694 6.84894 16.3889 6.94687 16.4267 7.03823C16.4646 7.1296 16.52 7.21262 16.59 7.28255C16.6599 7.35248 16.7429 7.40795 16.8343 7.44579C16.9256 7.48364 17.0236 7.50312 17.1225 7.50312C17.2214 7.50312 17.3193 7.48364 17.4106 7.44579C17.502 7.40795 17.585 7.35248 17.655 7.28255C17.7245 7.21247 17.7795 7.12935 17.8168 7.03798C17.8541 6.9466 17.873 6.84875 17.8725 6.75005C17.873 6.65134 17.8541 6.55349 17.8168 6.46212C17.7795 6.37074 17.7245 6.28763 17.655 6.21755C17.5849 6.14804 17.5018 6.09304 17.4104 6.05572C17.319 6.01839 17.2212 5.99948 17.1225 6.00005Z" fill="#E7BC00"/>
</svg>
