<svg width="37" height="37" viewBox="0 0 37 37" fill="none" xmlns="http://www.w3.org/2000/svg">
<path fill-rule="evenodd" clip-rule="evenodd" d="M18.5 0.000123716C8.27528 0.000123716 0 8.28366 0 18.4815C0 28.7165 8.27528 37 18.5 37C28.7247 37 37 28.7165 37 18.4815C37 8.24662 28.7247 -0.0369132 18.5 0.000123716ZM25.0212 6.92603C25.3214 6.92875 25.6085 7.0494 25.8207 7.262C26.0329 7.47459 26.1531 7.76211 26.1555 8.0626C26.1575 8.21227 26.1296 8.36084 26.0734 8.49955C26.0173 8.63827 25.9339 8.76434 25.8283 8.87035C25.7228 8.97635 25.5971 9.06015 25.4587 9.11682C25.3203 9.17349 25.1719 9.20188 25.0224 9.20033H24.8837V12.8843C24.8837 14.2964 24.1957 15.6413 22.888 16.1586C22.1653 16.4341 21.2345 16.6066 20.5119 16.8473C20.1685 16.9862 19.8586 17.1228 19.6516 17.2952C19.4458 17.4677 19.3429 17.639 19.3429 17.9144V18.8438C19.3429 19.1193 19.4458 19.2929 19.6516 19.4653C19.8586 19.6378 20.1685 19.8091 20.5119 19.9133C21.2345 20.154 22.1306 20.3264 22.888 20.6019C24.2292 21.1193 24.8837 22.4954 24.8837 23.8739V27.8357H25.0224C25.641 27.8357 26.1555 28.3172 26.1555 28.9375C26.1531 29.2378 26.033 29.5252 25.8211 29.7377C25.6092 29.9503 25.3224 30.0711 25.0224 30.0741H11.9441C11.3232 30.0741 10.8433 29.5567 10.8433 28.9375C10.8433 28.3172 11.3232 27.8357 11.9429 27.8357V23.8739C11.9429 22.4619 12.8737 21.1193 14.1814 20.6019C14.9041 20.3264 15.7978 20.1876 16.5205 19.9468C16.8986 19.8091 17.2085 19.6714 17.4154 19.4989C17.6213 19.3264 17.7242 19.1552 17.7242 18.8797V17.948C17.7242 17.6725 17.6213 17.5012 17.4143 17.3288C17.1508 17.119 16.8463 16.9669 16.5205 16.882C15.7632 16.6401 14.8694 16.5012 14.1814 16.2258C12.9072 15.7096 11.9429 14.4017 11.9429 12.9885V9.23389C11.3232 9.23389 10.8433 8.71653 10.8433 8.09732C10.8433 7.47695 11.3232 6.95959 11.9429 6.95959L25.0212 6.92603ZM12.9084 12.7813C12.8043 12.7813 12.7349 12.8855 12.8043 13.0232C12.8043 13.7119 13.1165 14.2617 13.5975 14.6413C14.0785 15.0198 14.6959 15.2616 15.3157 15.5024C15.9701 15.7096 16.6234 15.8809 17.1749 16.088C17.7253 16.2952 18.1392 16.5371 18.3797 16.8473C18.4491 16.9515 18.6549 16.9144 18.7232 16.8114C18.8966 16.5012 19.2747 16.2605 19.8251 16.0545C20.3766 15.8473 21.0299 15.6748 21.6843 15.4688C22.3041 15.2281 22.9562 14.9862 23.4383 14.6077C23.9205 14.2281 24.2627 13.6783 24.2627 12.9885C24.2627 12.8855 24.161 12.7802 24.0581 12.7802H12.9084V12.7813ZM18.4815 17.3971C18.3439 17.3971 18.2757 17.4677 18.3104 17.5707C18.3104 17.6748 18.3797 17.7431 18.4815 17.7431C18.5856 17.7431 18.6549 17.6737 18.6549 17.5707C18.6549 17.4677 18.5856 17.3971 18.4815 17.3971ZM18.4815 18.948C18.3439 18.948 18.2757 19.0163 18.3104 19.1193C18.3104 19.2234 18.3797 19.2917 18.4815 19.2917C18.5856 19.2917 18.6549 19.2223 18.6549 19.1193C18.6549 19.0151 18.5856 18.948 18.4815 18.948ZM18.4815 20.4642C18.3439 20.4642 18.2757 20.5683 18.3104 20.6366C18.3104 20.7396 18.3797 20.8079 18.4815 20.8079C18.5856 20.8079 18.6549 20.7396 18.6549 20.6366C18.6549 20.5325 18.5856 20.4642 18.4815 20.4642ZM18.4815 22.0128C18.3439 22.0128 18.2757 22.0822 18.3104 22.1852C18.3104 22.2882 18.3797 22.3588 18.4815 22.3588C18.5856 22.3588 18.6549 22.2547 18.6549 22.1852C18.6549 22.1158 18.5856 22.0128 18.4815 22.0128ZM18.448 23.0116C18.3439 23.0463 18.3439 23.0811 18.3092 23.1158C18.1034 23.4607 17.6906 23.7709 17.1414 23.9769C16.5899 24.1841 15.9354 24.3901 15.2822 24.5973C14.6624 24.838 14.0427 25.0787 13.5617 25.4584C13.0795 25.8368 12.7372 26.3878 12.7372 27.0764C12.7372 27.1806 12.839 27.2848 12.9419 27.2848H24.0234C24.1275 27.2848 24.2292 27.1806 24.2292 27.0764C24.2292 26.3878 23.8847 25.838 23.4025 25.4584C22.9215 25.0787 22.3018 24.838 21.6485 24.5973C20.994 24.3554 20.3396 24.1841 19.7892 23.9433C19.2735 23.7026 18.8619 23.4607 18.6561 23.1158C18.6214 23.0463 18.552 23.0116 18.448 23.0116Z" fill="#FFD106"/>
</svg>
