<svg width="20" height="20" viewBox="0 0 20 20" fill="none" xmlns="http://www.w3.org/2000/svg">
<path d="M9.1665 7.5C9.1665 8.88333 8.04984 10 6.6665 10C5.28317 10 4.1665 8.88333 4.1665 7.5C4.1665 6.11667 5.28317 5 6.6665 5C8.04984 5 9.1665 6.11667 9.1665 7.5ZM11.6665 16.6667H1.6665V15C1.6665 13.1583 3.90817 11.6667 6.6665 11.6667C9.42484 11.6667 11.6665 13.1583 11.6665 15M18.3332 10V11.6667H10.8332V10M18.3332 6.66667V8.33333H10.8332V6.66667M18.3332 3.33333V5H10.8332V3.33333H18.3332Z" fill="white"/>
</svg>
